<svg width="12" height="12" viewBox="0 0 12 12" fill="none" xmlns="http://www.w3.org/2000/svg">
<path d="M10 9.3335L10.2 9.6C10.2279 9.63714 10.2448 9.68131 10.249 9.72755C10.2532 9.77379 10.2444 9.82028 10.2236 9.8618C10.2028 9.90333 10.1709 9.93825 10.1314 9.96266C10.0919 9.98707 10.0464 10 10 10H2C1.95357 10 1.90806 9.98707 1.86857 9.96266C1.82907 9.93825 1.79716 9.90333 1.77639 9.8618C1.75563 9.82028 1.74684 9.77379 1.75101 9.72755C1.75518 9.68131 1.77214 9.63714 1.8 9.6L2 9.3335V5C2 3.93913 2.42143 2.92172 3.17157 2.17157C3.92172 1.42143 4.93913 1 6 1C7.06087 1 8.07828 1.42143 8.82843 2.17157C9.57857 2.92172 10 3.93913 10 5V9.3335ZM4.75 10.5H7.25C7.25 10.8315 7.1183 11.1495 6.88388 11.3839C6.64946 11.6183 6.33152 11.75 6 11.75C5.66848 11.75 5.35054 11.6183 5.11612 11.3839C4.8817 11.1495 4.75 10.8315 4.75 10.5Z" fill="white"/>
</svg>
