<svg width="16" height="16" viewBox="0 0 16 16" fill="none" xmlns="http://www.w3.org/2000/svg">
<path d="M8.70665 5.40667L9.64999 6.35C10.0834 6.78335 10.4272 7.29782 10.6617 7.86403C10.8963 8.43025 11.017 9.03713 11.017 9.65C11.017 10.2629 10.8963 10.8698 10.6617 11.436C10.4272 12.0022 10.0834 12.5167 9.64999 12.95L9.41399 13.1853C8.53877 14.0605 7.35173 14.5522 6.11399 14.5522C4.87625 14.5522 3.6892 14.0605 2.81399 13.1853C1.93877 12.3101 1.44708 11.1231 1.44708 9.88533C1.44708 8.64759 1.93877 7.46055 2.81399 6.58533L3.75732 7.52867C3.44557 7.8377 3.19792 8.20527 3.02861 8.61027C2.85929 9.01527 2.77163 9.44972 2.77067 9.88869C2.76971 10.3277 2.85546 10.7625 3.023 11.1682C3.19055 11.574 3.43658 11.9426 3.74698 12.253C4.05737 12.5634 4.42602 12.8094 4.83176 12.977C5.2375 13.1445 5.67233 13.2303 6.1113 13.2293C6.55026 13.2284 6.98472 13.1407 7.38972 12.9714C7.79472 12.8021 8.16229 12.5544 8.47132 12.2427L8.70732 12.0067C9.33222 11.3816 9.68328 10.5339 9.68328 9.65C9.68328 8.76612 9.33222 7.91843 8.70732 7.29333L7.76399 6.35L8.70732 5.40733L8.70665 5.40667ZM13.1853 9.414L12.2427 8.47133C12.5544 8.1623 12.8021 7.79473 12.9714 7.38973C13.1407 6.98473 13.2283 6.55028 13.2293 6.11131C13.2303 5.67234 13.1445 5.23751 12.977 4.83177C12.8094 4.42603 12.5634 4.05739 12.253 3.74699C11.9426 3.43659 11.574 3.19056 11.1682 3.02302C10.7625 2.85548 10.3276 2.76972 9.88868 2.77069C9.44971 2.77165 9.01526 2.8593 8.61026 3.02862C8.20526 3.19794 7.83769 3.44558 7.52865 3.75733L7.29265 3.99333C6.66775 4.61843 6.3167 5.46612 6.3167 6.35C6.3167 7.23388 6.66775 8.08157 7.29265 8.70667L8.23599 9.65L7.29265 10.5927L6.34999 9.65C5.9166 9.21665 5.57281 8.70218 5.33826 8.13597C5.10371 7.56975 4.98298 6.96287 4.98298 6.35C4.98298 5.73712 5.10371 5.13025 5.33826 4.56403C5.57281 3.99782 5.9166 3.48335 6.34999 3.05L6.58599 2.81467C7.4612 1.93945 8.64825 1.44776 9.88599 1.44776C11.1237 1.44776 12.3108 1.93945 13.186 2.81467C14.0612 3.68988 14.5529 4.87693 14.5529 6.11467C14.5529 7.35241 14.0612 8.53945 13.186 9.41467L13.1853 9.414Z" fill="#C4C4C4"/>
</svg>
