<svg width="27" height="27" viewBox="0 0 27 27" fill="none" xmlns="http://www.w3.org/2000/svg">
<path d="M20.0711 17.6164L20.2691 17.8155L20.4694 17.6164C20.7044 17.3813 20.9835 17.1949 21.2906 17.0677C21.5977 16.9405 21.9268 16.875 22.2592 16.875C22.5917 16.875 22.9208 16.9405 23.2279 17.0677C23.535 17.1949 23.8141 17.3813 24.0491 17.6164C24.2842 17.8514 24.4706 18.1305 24.5978 18.4376C24.725 18.7447 24.7905 19.0738 24.7905 19.4062C24.7905 19.7387 24.725 20.0678 24.5978 20.3749C24.4706 20.682 24.2842 20.9611 24.0491 21.1961L20.2691 24.975L16.4914 21.1961C16.0167 20.7214 15.75 20.0776 15.75 19.4062C15.75 18.7349 16.0167 18.0911 16.4914 17.6164C16.9661 17.1417 17.6099 16.875 18.2812 16.875C18.9526 16.875 19.5964 17.1417 20.0711 17.6164ZM13.5 15.75V18C11.7098 18 9.9929 18.7112 8.72703 19.977C7.46116 21.2429 6.75 22.9598 6.75 24.75H4.5C4.50003 22.4118 5.41005 20.1653 7.0374 18.4863C8.66475 16.8073 10.8817 15.8276 13.2188 15.7545L13.5 15.75ZM13.5 1.125C17.2294 1.125 20.25 4.14562 20.25 7.875C20.2506 9.6216 19.574 11.3004 18.3624 12.5584C17.1507 13.8164 15.4985 14.5556 13.7531 14.6205L13.5 14.625C9.77062 14.625 6.75 11.6044 6.75 7.875C6.74937 6.1284 7.42602 4.44961 8.63764 3.19161C9.84927 1.93362 11.5015 1.19444 13.2469 1.1295L13.5 1.125ZM13.5 3.375C11.0137 3.375 9 5.38875 9 7.875C9 10.3613 11.0137 12.375 13.5 12.375C15.9863 12.375 18 10.3613 18 7.875C18 5.38875 15.9863 3.375 13.5 3.375Z" fill="#858585"/>
</svg>
