<svg width="27" height="27" viewBox="0 0 27 27" fill="none" xmlns="http://www.w3.org/2000/svg">
<path d="M8.20239 23.427L2.25001 24.75L3.57301 18.7976C2.70174 17.1679 2.24723 15.348 2.25001 13.5C2.25001 7.28663 7.28664 2.25 13.5 2.25C19.7134 2.25 24.75 7.28663 24.75 13.5C24.75 19.7134 19.7134 24.75 13.5 24.75C11.652 24.7528 9.83208 24.2983 8.20239 23.427ZM8.52864 21.0499L9.26326 21.4436C10.5666 22.1402 12.0222 22.5031 13.5 22.5C15.28 22.5 17.0201 21.9722 18.5001 20.9832C19.9802 19.9943 21.1337 18.5887 21.8149 16.9442C22.4961 15.2996 22.6743 13.49 22.3271 11.7442C21.9798 9.99836 21.1226 8.39471 19.864 7.13604C18.6053 5.87737 17.0017 5.0202 15.2558 4.67293C13.51 4.32567 11.7004 4.5039 10.0559 5.18508C8.41133 5.86627 7.00572 7.01983 6.01679 8.49987C5.02785 9.97991 4.50001 11.72 4.50001 13.5C4.50001 15.0008 4.86564 16.4453 5.55751 17.7367L5.95014 18.4714L5.21326 21.7867L8.52864 21.0499ZM7.87501 13.5H10.125C10.125 14.3951 10.4806 15.2536 11.1135 15.8865C11.7465 16.5194 12.6049 16.875 13.5 16.875C14.3951 16.875 15.2536 16.5194 15.8865 15.8865C16.5194 15.2536 16.875 14.3951 16.875 13.5H19.125C19.125 14.9918 18.5324 16.4226 17.4775 17.4775C16.4226 18.5324 14.9919 19.125 13.5 19.125C12.0082 19.125 10.5774 18.5324 9.52254 17.4775C8.46765 16.4226 7.87501 14.9918 7.87501 13.5Z" fill="#858585"/>
</svg>
