<svg width="27" height="27" viewBox="0 0 27 27" fill="none" xmlns="http://www.w3.org/2000/svg">
<path d="M2.25 4.49213C2.25206 4.19668 2.37026 3.91389 2.57908 3.70487C2.78789 3.49585 3.07055 3.37736 3.366 3.375H23.634C24.2505 3.375 24.75 3.87563 24.75 4.49213V22.5079C24.7479 22.8033 24.6297 23.0861 24.4209 23.2951C24.2121 23.5042 23.9294 23.6226 23.634 23.625H3.366C3.06992 23.6247 2.78606 23.5069 2.5768 23.2974C2.36754 23.0879 2.25 22.804 2.25 22.5079V4.49213ZM4.5 5.625V21.375H22.5V5.625H4.5ZM13.5 16.875C14.3951 16.875 15.2536 16.5194 15.8865 15.8865C16.5194 15.2536 16.875 14.3951 16.875 13.5C16.875 12.6049 16.5194 11.7464 15.8865 11.1135C15.2536 10.4806 14.3951 10.125 13.5 10.125C12.6049 10.125 11.7464 10.4806 11.1135 11.1135C10.4806 11.7464 10.125 12.6049 10.125 13.5C10.125 14.3951 10.4806 15.2536 11.1135 15.8865C11.7464 16.5194 12.6049 16.875 13.5 16.875ZM13.5 19.125C12.0082 19.125 10.5774 18.5324 9.52252 17.4775C8.46763 16.4226 7.875 14.9918 7.875 13.5C7.875 12.0082 8.46763 10.5774 9.52252 9.52252C10.5774 8.46763 12.0082 7.875 13.5 7.875C14.9918 7.875 16.4226 8.46763 17.4775 9.52252C18.5324 10.5774 19.125 12.0082 19.125 13.5C19.125 14.9918 18.5324 16.4226 17.4775 17.4775C16.4226 18.5324 14.9918 19.125 13.5 19.125ZM19.125 6.75H21.375V9H19.125V6.75Z" fill="#858585"/>
</svg>
