<svg width="27" height="27" viewBox="0 0 27 27" fill="none" xmlns="http://www.w3.org/2000/svg">
<path d="M13.5 1.125L24.1875 7.3125V19.6875L13.5 25.875L2.8125 19.6875V7.3125L13.5 1.125ZM13.5 3.72488L5.0625 8.60962V18.3904L13.5 23.2751L21.9375 18.3904V8.60962L13.5 3.72488ZM13.5 18C12.3065 18 11.1619 17.5259 10.318 16.682C9.47411 15.8381 9 14.6935 9 13.5C9 12.3065 9.47411 11.1619 10.318 10.318C11.1619 9.47411 12.3065 9 13.5 9C14.6935 9 15.8381 9.47411 16.682 10.318C17.5259 11.1619 18 12.3065 18 13.5C18 14.6935 17.5259 15.8381 16.682 16.682C15.8381 17.5259 14.6935 18 13.5 18ZM13.5 15.75C14.0967 15.75 14.669 15.5129 15.091 15.091C15.5129 14.669 15.75 14.0967 15.75 13.5C15.75 12.9033 15.5129 12.331 15.091 11.909C14.669 11.4871 14.0967 11.25 13.5 11.25C12.9033 11.25 12.331 11.4871 11.909 11.909C11.4871 12.331 11.25 12.9033 11.25 13.5C11.25 14.0967 11.4871 14.669 11.909 15.091C12.331 15.5129 12.9033 15.75 13.5 15.75Z" fill="#858585"/>
</svg>
