<svg width="27" height="27" viewBox="0 0 27 27" fill="none" xmlns="http://www.w3.org/2000/svg">
<path d="M14.625 23.625H20.25V25.875H6.74999V23.625H12.375V22.4437C10.5913 22.2646 8.87617 21.6619 7.37252 20.6859C5.86886 19.7098 4.62019 18.3886 3.73049 16.8322L5.68461 15.7162C6.37174 16.9169 7.3264 17.943 8.47445 18.7148C9.62249 19.4867 10.933 19.9835 12.3042 20.1666C13.6754 20.3498 15.0704 20.2144 16.3807 19.771C17.6911 19.3276 18.8816 18.588 19.8598 17.6098C20.838 16.6316 21.5776 15.4411 22.021 14.1307C22.4644 12.8204 22.5998 11.4254 22.4166 10.0542C22.2335 8.683 21.7367 7.37249 20.9648 6.22445C20.193 5.0764 19.1669 4.12174 17.9662 3.43461L19.0822 1.48049C20.8046 2.46435 22.2362 3.8863 23.2316 5.60207C24.227 7.31785 24.7508 9.26638 24.75 11.25C24.75 17.0831 20.3096 21.8801 14.625 22.4437V23.625ZM13.5 19.125C12.4658 19.125 11.4418 18.9213 10.4864 18.5255C9.53091 18.1298 8.66278 17.5497 7.93152 16.8185C7.20026 16.0872 6.62019 15.2191 6.22443 14.2636C5.82868 13.3082 5.62499 12.2841 5.62499 11.25C5.62499 10.2158 5.82868 9.19179 6.22443 8.23635C6.62019 7.28092 7.20026 6.41278 7.93152 5.68152C8.66278 4.95026 9.53091 4.37019 10.4864 3.97443C11.4418 3.57868 12.4658 3.37499 13.5 3.37499C15.5886 3.37499 17.5916 4.20467 19.0685 5.68152C20.5453 7.15837 21.375 9.16141 21.375 11.25C21.375 13.3386 20.5453 15.3416 19.0685 16.8185C17.5916 18.2953 15.5886 19.125 13.5 19.125ZM13.5 16.875C14.9918 16.875 16.4226 16.2824 17.4775 15.2275C18.5324 14.1726 19.125 12.7418 19.125 11.25C19.125 9.75814 18.5324 8.3274 17.4775 7.27251C16.4226 6.21762 14.9918 5.62499 13.5 5.62499C12.0081 5.62499 10.5774 6.21762 9.52251 7.27251C8.46762 8.3274 7.87499 9.75814 7.87499 11.25C7.87499 12.7418 8.46762 14.1726 9.52251 15.2275C10.5774 16.2824 12.0081 16.875 13.5 16.875Z" fill="#F07D7D"/>
</svg>
