<svg width="12" height="12" viewBox="0 0 12 12" fill="none" xmlns="http://www.w3.org/2000/svg">
<path d="M9.293 9.99997H2C1.95357 9.99997 1.90806 9.98704 1.86857 9.96264C1.82908 9.93823 1.79716 9.9033 1.7764 9.86178C1.75563 9.82025 1.74684 9.77376 1.75101 9.72752C1.75518 9.68128 1.77215 9.63712 1.8 9.59997L2 9.33347V4.99997C2 4.33497 2.162 3.70797 2.4495 3.15647L0.696503 1.40397L1.404 0.696472L11.3035 10.5965L10.596 11.3035L9.293 9.99997ZM10 7.89297L3.7795 1.67247C4.38188 1.27045 5.08209 1.0395 5.80544 1.00427C6.5288 0.969049 7.24814 1.13087 7.88672 1.47246C8.52531 1.81406 9.05918 2.32261 9.43136 2.94387C9.80354 3.56512 10.0001 4.27576 10 4.99997V7.89297ZM4.75 10.5H7.25C7.25 10.8315 7.11831 11.1494 6.88389 11.3839C6.64947 11.6183 6.33152 11.75 6 11.75C5.66848 11.75 5.35054 11.6183 5.11612 11.3839C4.8817 11.1494 4.75 10.8315 4.75 10.5Z" fill="white"/>
</svg>
