<svg width="20" height="20" viewBox="0 0 20 20" fill="none" xmlns="http://www.w3.org/2000/svg">
<path d="M15.0259 13.8475L18.595 17.4158L17.4159 18.595L13.8475 15.0258C12.5198 16.0902 10.8684 16.6691 9.16669 16.6667C5.02669 16.6667 1.66669 13.3067 1.66669 9.16666C1.66669 5.02666 5.02669 1.66666 9.16669 1.66666C13.3067 1.66666 16.6667 5.02666 16.6667 9.16666C16.6691 10.8683 16.0902 12.5198 15.0259 13.8475ZM13.3542 13.2292C14.4118 12.1416 15.0024 10.6837 15 9.16666C15 5.94332 12.3892 3.33332 9.16669 3.33332C5.94335 3.33332 3.33335 5.94332 3.33335 9.16666C3.33335 12.3892 5.94335 15 9.16669 15C10.6837 15.0024 12.1416 14.4118 13.2292 13.3542L13.3542 13.2292ZM10.1484 5.97999C9.90263 6.09099 9.6875 6.25995 9.52143 6.47237C9.35536 6.68479 9.24331 6.93433 9.19489 7.19958C9.14647 7.46483 9.16313 7.73787 9.24343 7.99527C9.32374 8.25266 9.46529 8.48673 9.65595 8.67739C9.84661 8.86805 10.0807 9.00961 10.3381 9.08991C10.5955 9.17022 10.8685 9.18688 11.1338 9.13845C11.399 9.09003 11.6486 8.97798 11.861 8.81191C12.0734 8.64584 12.2424 8.43072 12.3534 8.18499C12.5724 8.89634 12.547 9.66053 12.2813 10.3558C12.0155 11.051 11.5248 11.6374 10.8872 12.0213C10.2495 12.4053 9.50175 12.5648 8.76295 12.4745C8.02416 12.3841 7.33685 12.0491 6.81055 11.5228C6.28425 10.9965 5.94924 10.3092 5.85889 9.57039C5.76854 8.83159 5.92806 8.08381 6.31202 7.44619C6.69599 6.80858 7.28231 6.31781 7.97756 6.05209C8.67282 5.78637 9.437 5.76099 10.1484 5.97999Z" fill="#C4C4C4"/>
</svg>
